<?xml version="1.0" encoding="UTF-8" standalone="no"?>
<!DOCTYPE svg PUBLIC "-//W3C//DTD SVG 1.1//EN"
 "http://www.w3.org/Graphics/SVG/1.1/DTD/svg11.dtd">
<!-- Generated by graphviz version 2.38.0 (20140413.2041)
 -->
<!-- Title: G Pages: 1 -->
<svg width="382pt" height="1715pt"
 viewBox="0.00 0.00 382.00 1715.00" xmlns="http://www.w3.org/2000/svg" xmlns:xlink="http://www.w3.org/1999/xlink">
<g id="graph0" class="graph" transform="scale(1 1) rotate(0) translate(4 1711)">
<title>G</title>
<polygon fill="white" stroke="none" points="-4,4 -4,-1711 378,-1711 378,4 -4,4"/>
<!-- 1368007873200 -->
<g id="node1" class="node"><title>1368007873200</title>
<polygon fill="none" stroke="black" points="33.5,-1660.5 33.5,-1706.5 340.5,-1706.5 340.5,-1660.5 33.5,-1660.5"/>
<text text-anchor="middle" x="96.5" y="-1679.8" font-family="Times New Roman,serif" font-size="14.00">input_1: InputLayer</text>
<polyline fill="none" stroke="black" points="159.5,-1660.5 159.5,-1706.5 "/>
<text text-anchor="middle" x="187.5" y="-1691.3" font-family="Times New Roman,serif" font-size="14.00">input:</text>
<polyline fill="none" stroke="black" points="159.5,-1683.5 215.5,-1683.5 "/>
<text text-anchor="middle" x="187.5" y="-1668.3" font-family="Times New Roman,serif" font-size="14.00">output:</text>
<polyline fill="none" stroke="black" points="215.5,-1660.5 215.5,-1706.5 "/>
<text text-anchor="middle" x="278" y="-1691.3" font-family="Times New Roman,serif" font-size="14.00">(None, 448, 448, 3)</text>
<polyline fill="none" stroke="black" points="215.5,-1683.5 340.5,-1683.5 "/>
<text text-anchor="middle" x="278" y="-1668.3" font-family="Times New Roman,serif" font-size="14.00">(None, 448, 448, 3)</text>
</g>
<!-- 1368379739832 -->
<g id="node2" class="node"><title>1368379739832</title>
<polygon fill="none" stroke="black" points="17.5,-1577.5 17.5,-1623.5 356.5,-1623.5 356.5,-1577.5 17.5,-1577.5"/>
<text text-anchor="middle" x="93" y="-1596.8" font-family="Times New Roman,serif" font-size="14.00">block1_conv1: Conv2D</text>
<polyline fill="none" stroke="black" points="168.5,-1577.5 168.5,-1623.5 "/>
<text text-anchor="middle" x="196.5" y="-1608.3" font-family="Times New Roman,serif" font-size="14.00">input:</text>
<polyline fill="none" stroke="black" points="168.5,-1600.5 224.5,-1600.5 "/>
<text text-anchor="middle" x="196.5" y="-1585.3" font-family="Times New Roman,serif" font-size="14.00">output:</text>
<polyline fill="none" stroke="black" points="224.5,-1577.5 224.5,-1623.5 "/>
<text text-anchor="middle" x="290.5" y="-1608.3" font-family="Times New Roman,serif" font-size="14.00">(None, 448, 448, 3)</text>
<polyline fill="none" stroke="black" points="224.5,-1600.5 356.5,-1600.5 "/>
<text text-anchor="middle" x="290.5" y="-1585.3" font-family="Times New Roman,serif" font-size="14.00">(None, 448, 448, 64)</text>
</g>
<!-- 1368007873200&#45;&gt;1368379739832 -->
<g id="edge1" class="edge"><title>1368007873200&#45;&gt;1368379739832</title>
<path fill="none" stroke="black" d="M187,-1660.37C187,-1652.15 187,-1642.66 187,-1633.73"/>
<polygon fill="black" stroke="black" points="190.5,-1633.61 187,-1623.61 183.5,-1633.61 190.5,-1633.61"/>
</g>
<!-- 1368379739328 -->
<g id="node3" class="node"><title>1368379739328</title>
<polygon fill="none" stroke="black" points="17.5,-1494.5 17.5,-1540.5 356.5,-1540.5 356.5,-1494.5 17.5,-1494.5"/>
<text text-anchor="middle" x="93" y="-1513.8" font-family="Times New Roman,serif" font-size="14.00">block1_conv2: Conv2D</text>
<polyline fill="none" stroke="black" points="168.5,-1494.5 168.5,-1540.5 "/>
<text text-anchor="middle" x="196.5" y="-1525.3" font-family="Times New Roman,serif" font-size="14.00">input:</text>
<polyline fill="none" stroke="black" points="168.5,-1517.5 224.5,-1517.5 "/>
<text text-anchor="middle" x="196.5" y="-1502.3" font-family="Times New Roman,serif" font-size="14.00">output:</text>
<polyline fill="none" stroke="black" points="224.5,-1494.5 224.5,-1540.5 "/>
<text text-anchor="middle" x="290.5" y="-1525.3" font-family="Times New Roman,serif" font-size="14.00">(None, 448, 448, 64)</text>
<polyline fill="none" stroke="black" points="224.5,-1517.5 356.5,-1517.5 "/>
<text text-anchor="middle" x="290.5" y="-1502.3" font-family="Times New Roman,serif" font-size="14.00">(None, 448, 448, 64)</text>
</g>
<!-- 1368379739832&#45;&gt;1368379739328 -->
<g id="edge2" class="edge"><title>1368379739832&#45;&gt;1368379739328</title>
<path fill="none" stroke="black" d="M187,-1577.37C187,-1569.15 187,-1559.66 187,-1550.73"/>
<polygon fill="black" stroke="black" points="190.5,-1550.61 187,-1540.61 183.5,-1550.61 190.5,-1550.61"/>
</g>
<!-- 1368379740056 -->
<g id="node4" class="node"><title>1368379740056</title>
<polygon fill="none" stroke="black" points="3.5,-1411.5 3.5,-1457.5 370.5,-1457.5 370.5,-1411.5 3.5,-1411.5"/>
<text text-anchor="middle" x="93" y="-1430.8" font-family="Times New Roman,serif" font-size="14.00">block1_pool: MaxPooling2D</text>
<polyline fill="none" stroke="black" points="182.5,-1411.5 182.5,-1457.5 "/>
<text text-anchor="middle" x="210.5" y="-1442.3" font-family="Times New Roman,serif" font-size="14.00">input:</text>
<polyline fill="none" stroke="black" points="182.5,-1434.5 238.5,-1434.5 "/>
<text text-anchor="middle" x="210.5" y="-1419.3" font-family="Times New Roman,serif" font-size="14.00">output:</text>
<polyline fill="none" stroke="black" points="238.5,-1411.5 238.5,-1457.5 "/>
<text text-anchor="middle" x="304.5" y="-1442.3" font-family="Times New Roman,serif" font-size="14.00">(None, 448, 448, 64)</text>
<polyline fill="none" stroke="black" points="238.5,-1434.5 370.5,-1434.5 "/>
<text text-anchor="middle" x="304.5" y="-1419.3" font-family="Times New Roman,serif" font-size="14.00">(None, 224, 224, 64)</text>
</g>
<!-- 1368379739328&#45;&gt;1368379740056 -->
<g id="edge3" class="edge"><title>1368379739328&#45;&gt;1368379740056</title>
<path fill="none" stroke="black" d="M187,-1494.37C187,-1486.15 187,-1476.66 187,-1467.73"/>
<polygon fill="black" stroke="black" points="190.5,-1467.61 187,-1457.61 183.5,-1467.61 190.5,-1467.61"/>
</g>
<!-- 1368379822712 -->
<g id="node5" class="node"><title>1368379822712</title>
<polygon fill="none" stroke="black" points="14,-1328.5 14,-1374.5 360,-1374.5 360,-1328.5 14,-1328.5"/>
<text text-anchor="middle" x="89.5" y="-1347.8" font-family="Times New Roman,serif" font-size="14.00">block2_conv1: Conv2D</text>
<polyline fill="none" stroke="black" points="165,-1328.5 165,-1374.5 "/>
<text text-anchor="middle" x="193" y="-1359.3" font-family="Times New Roman,serif" font-size="14.00">input:</text>
<polyline fill="none" stroke="black" points="165,-1351.5 221,-1351.5 "/>
<text text-anchor="middle" x="193" y="-1336.3" font-family="Times New Roman,serif" font-size="14.00">output:</text>
<polyline fill="none" stroke="black" points="221,-1328.5 221,-1374.5 "/>
<text text-anchor="middle" x="290.5" y="-1359.3" font-family="Times New Roman,serif" font-size="14.00">(None, 224, 224, 64)</text>
<polyline fill="none" stroke="black" points="221,-1351.5 360,-1351.5 "/>
<text text-anchor="middle" x="290.5" y="-1336.3" font-family="Times New Roman,serif" font-size="14.00">(None, 224, 224, 128)</text>
</g>
<!-- 1368379740056&#45;&gt;1368379822712 -->
<g id="edge4" class="edge"><title>1368379740056&#45;&gt;1368379822712</title>
<path fill="none" stroke="black" d="M187,-1411.37C187,-1403.15 187,-1393.66 187,-1384.73"/>
<polygon fill="black" stroke="black" points="190.5,-1384.61 187,-1374.61 183.5,-1384.61 190.5,-1384.61"/>
</g>
<!-- 1368379973080 -->
<g id="node6" class="node"><title>1368379973080</title>
<polygon fill="none" stroke="black" points="14,-1245.5 14,-1291.5 360,-1291.5 360,-1245.5 14,-1245.5"/>
<text text-anchor="middle" x="89.5" y="-1264.8" font-family="Times New Roman,serif" font-size="14.00">block2_conv2: Conv2D</text>
<polyline fill="none" stroke="black" points="165,-1245.5 165,-1291.5 "/>
<text text-anchor="middle" x="193" y="-1276.3" font-family="Times New Roman,serif" font-size="14.00">input:</text>
<polyline fill="none" stroke="black" points="165,-1268.5 221,-1268.5 "/>
<text text-anchor="middle" x="193" y="-1253.3" font-family="Times New Roman,serif" font-size="14.00">output:</text>
<polyline fill="none" stroke="black" points="221,-1245.5 221,-1291.5 "/>
<text text-anchor="middle" x="290.5" y="-1276.3" font-family="Times New Roman,serif" font-size="14.00">(None, 224, 224, 128)</text>
<polyline fill="none" stroke="black" points="221,-1268.5 360,-1268.5 "/>
<text text-anchor="middle" x="290.5" y="-1253.3" font-family="Times New Roman,serif" font-size="14.00">(None, 224, 224, 128)</text>
</g>
<!-- 1368379822712&#45;&gt;1368379973080 -->
<g id="edge5" class="edge"><title>1368379822712&#45;&gt;1368379973080</title>
<path fill="none" stroke="black" d="M187,-1328.37C187,-1320.15 187,-1310.66 187,-1301.73"/>
<polygon fill="black" stroke="black" points="190.5,-1301.61 187,-1291.61 183.5,-1301.61 190.5,-1301.61"/>
</g>
<!-- 1368380013928 -->
<g id="node7" class="node"><title>1368380013928</title>
<polygon fill="none" stroke="black" points="0,-1162.5 0,-1208.5 374,-1208.5 374,-1162.5 0,-1162.5"/>
<text text-anchor="middle" x="89.5" y="-1181.8" font-family="Times New Roman,serif" font-size="14.00">block2_pool: MaxPooling2D</text>
<polyline fill="none" stroke="black" points="179,-1162.5 179,-1208.5 "/>
<text text-anchor="middle" x="207" y="-1193.3" font-family="Times New Roman,serif" font-size="14.00">input:</text>
<polyline fill="none" stroke="black" points="179,-1185.5 235,-1185.5 "/>
<text text-anchor="middle" x="207" y="-1170.3" font-family="Times New Roman,serif" font-size="14.00">output:</text>
<polyline fill="none" stroke="black" points="235,-1162.5 235,-1208.5 "/>
<text text-anchor="middle" x="304.5" y="-1193.3" font-family="Times New Roman,serif" font-size="14.00">(None, 224, 224, 128)</text>
<polyline fill="none" stroke="black" points="235,-1185.5 374,-1185.5 "/>
<text text-anchor="middle" x="304.5" y="-1170.3" font-family="Times New Roman,serif" font-size="14.00">(None, 112, 112, 128)</text>
</g>
<!-- 1368379973080&#45;&gt;1368380013928 -->
<g id="edge6" class="edge"><title>1368379973080&#45;&gt;1368380013928</title>
<path fill="none" stroke="black" d="M187,-1245.37C187,-1237.15 187,-1227.66 187,-1218.73"/>
<polygon fill="black" stroke="black" points="190.5,-1218.61 187,-1208.61 183.5,-1218.61 190.5,-1218.61"/>
</g>
<!-- 1368380055680 -->
<g id="node8" class="node"><title>1368380055680</title>
<polygon fill="none" stroke="black" points="14,-1079.5 14,-1125.5 360,-1125.5 360,-1079.5 14,-1079.5"/>
<text text-anchor="middle" x="89.5" y="-1098.8" font-family="Times New Roman,serif" font-size="14.00">block3_conv1: Conv2D</text>
<polyline fill="none" stroke="black" points="165,-1079.5 165,-1125.5 "/>
<text text-anchor="middle" x="193" y="-1110.3" font-family="Times New Roman,serif" font-size="14.00">input:</text>
<polyline fill="none" stroke="black" points="165,-1102.5 221,-1102.5 "/>
<text text-anchor="middle" x="193" y="-1087.3" font-family="Times New Roman,serif" font-size="14.00">output:</text>
<polyline fill="none" stroke="black" points="221,-1079.5 221,-1125.5 "/>
<text text-anchor="middle" x="290.5" y="-1110.3" font-family="Times New Roman,serif" font-size="14.00">(None, 112, 112, 128)</text>
<polyline fill="none" stroke="black" points="221,-1102.5 360,-1102.5 "/>
<text text-anchor="middle" x="290.5" y="-1087.3" font-family="Times New Roman,serif" font-size="14.00">(None, 112, 112, 256)</text>
</g>
<!-- 1368380013928&#45;&gt;1368380055680 -->
<g id="edge7" class="edge"><title>1368380013928&#45;&gt;1368380055680</title>
<path fill="none" stroke="black" d="M187,-1162.37C187,-1154.15 187,-1144.66 187,-1135.73"/>
<polygon fill="black" stroke="black" points="190.5,-1135.61 187,-1125.61 183.5,-1135.61 190.5,-1135.61"/>
</g>
<!-- 1368380140288 -->
<g id="node9" class="node"><title>1368380140288</title>
<polygon fill="none" stroke="black" points="14,-996.5 14,-1042.5 360,-1042.5 360,-996.5 14,-996.5"/>
<text text-anchor="middle" x="89.5" y="-1015.8" font-family="Times New Roman,serif" font-size="14.00">block3_conv2: Conv2D</text>
<polyline fill="none" stroke="black" points="165,-996.5 165,-1042.5 "/>
<text text-anchor="middle" x="193" y="-1027.3" font-family="Times New Roman,serif" font-size="14.00">input:</text>
<polyline fill="none" stroke="black" points="165,-1019.5 221,-1019.5 "/>
<text text-anchor="middle" x="193" y="-1004.3" font-family="Times New Roman,serif" font-size="14.00">output:</text>
<polyline fill="none" stroke="black" points="221,-996.5 221,-1042.5 "/>
<text text-anchor="middle" x="290.5" y="-1027.3" font-family="Times New Roman,serif" font-size="14.00">(None, 112, 112, 256)</text>
<polyline fill="none" stroke="black" points="221,-1019.5 360,-1019.5 "/>
<text text-anchor="middle" x="290.5" y="-1004.3" font-family="Times New Roman,serif" font-size="14.00">(None, 112, 112, 256)</text>
</g>
<!-- 1368380055680&#45;&gt;1368380140288 -->
<g id="edge8" class="edge"><title>1368380055680&#45;&gt;1368380140288</title>
<path fill="none" stroke="black" d="M187,-1079.37C187,-1071.15 187,-1061.66 187,-1052.73"/>
<polygon fill="black" stroke="black" points="190.5,-1052.61 187,-1042.61 183.5,-1052.61 190.5,-1052.61"/>
</g>
<!-- 1368380175752 -->
<g id="node10" class="node"><title>1368380175752</title>
<polygon fill="none" stroke="black" points="14,-913.5 14,-959.5 360,-959.5 360,-913.5 14,-913.5"/>
<text text-anchor="middle" x="89.5" y="-932.8" font-family="Times New Roman,serif" font-size="14.00">block3_conv3: Conv2D</text>
<polyline fill="none" stroke="black" points="165,-913.5 165,-959.5 "/>
<text text-anchor="middle" x="193" y="-944.3" font-family="Times New Roman,serif" font-size="14.00">input:</text>
<polyline fill="none" stroke="black" points="165,-936.5 221,-936.5 "/>
<text text-anchor="middle" x="193" y="-921.3" font-family="Times New Roman,serif" font-size="14.00">output:</text>
<polyline fill="none" stroke="black" points="221,-913.5 221,-959.5 "/>
<text text-anchor="middle" x="290.5" y="-944.3" font-family="Times New Roman,serif" font-size="14.00">(None, 112, 112, 256)</text>
<polyline fill="none" stroke="black" points="221,-936.5 360,-936.5 "/>
<text text-anchor="middle" x="290.5" y="-921.3" font-family="Times New Roman,serif" font-size="14.00">(None, 112, 112, 256)</text>
</g>
<!-- 1368380140288&#45;&gt;1368380175752 -->
<g id="edge9" class="edge"><title>1368380140288&#45;&gt;1368380175752</title>
<path fill="none" stroke="black" d="M187,-996.366C187,-988.152 187,-978.658 187,-969.725"/>
<polygon fill="black" stroke="black" points="190.5,-969.607 187,-959.607 183.5,-969.607 190.5,-969.607"/>
</g>
<!-- 1368380259968 -->
<g id="node11" class="node"><title>1368380259968</title>
<polygon fill="none" stroke="black" points="0,-830.5 0,-876.5 374,-876.5 374,-830.5 0,-830.5"/>
<text text-anchor="middle" x="89.5" y="-849.8" font-family="Times New Roman,serif" font-size="14.00">block3_pool: MaxPooling2D</text>
<polyline fill="none" stroke="black" points="179,-830.5 179,-876.5 "/>
<text text-anchor="middle" x="207" y="-861.3" font-family="Times New Roman,serif" font-size="14.00">input:</text>
<polyline fill="none" stroke="black" points="179,-853.5 235,-853.5 "/>
<text text-anchor="middle" x="207" y="-838.3" font-family="Times New Roman,serif" font-size="14.00">output:</text>
<polyline fill="none" stroke="black" points="235,-830.5 235,-876.5 "/>
<text text-anchor="middle" x="304.5" y="-861.3" font-family="Times New Roman,serif" font-size="14.00">(None, 112, 112, 256)</text>
<polyline fill="none" stroke="black" points="235,-853.5 374,-853.5 "/>
<text text-anchor="middle" x="304.5" y="-838.3" font-family="Times New Roman,serif" font-size="14.00">(None, 56, 56, 256)</text>
</g>
<!-- 1368380175752&#45;&gt;1368380259968 -->
<g id="edge10" class="edge"><title>1368380175752&#45;&gt;1368380259968</title>
<path fill="none" stroke="black" d="M187,-913.366C187,-905.152 187,-895.658 187,-886.725"/>
<polygon fill="black" stroke="black" points="190.5,-886.607 187,-876.607 183.5,-886.607 190.5,-886.607"/>
</g>
<!-- 1368380299136 -->
<g id="node12" class="node"><title>1368380299136</title>
<polygon fill="none" stroke="black" points="21,-747.5 21,-793.5 353,-793.5 353,-747.5 21,-747.5"/>
<text text-anchor="middle" x="96.5" y="-766.8" font-family="Times New Roman,serif" font-size="14.00">block4_conv1: Conv2D</text>
<polyline fill="none" stroke="black" points="172,-747.5 172,-793.5 "/>
<text text-anchor="middle" x="200" y="-778.3" font-family="Times New Roman,serif" font-size="14.00">input:</text>
<polyline fill="none" stroke="black" points="172,-770.5 228,-770.5 "/>
<text text-anchor="middle" x="200" y="-755.3" font-family="Times New Roman,serif" font-size="14.00">output:</text>
<polyline fill="none" stroke="black" points="228,-747.5 228,-793.5 "/>
<text text-anchor="middle" x="290.5" y="-778.3" font-family="Times New Roman,serif" font-size="14.00">(None, 56, 56, 256)</text>
<polyline fill="none" stroke="black" points="228,-770.5 353,-770.5 "/>
<text text-anchor="middle" x="290.5" y="-755.3" font-family="Times New Roman,serif" font-size="14.00">(None, 56, 56, 512)</text>
</g>
<!-- 1368380259968&#45;&gt;1368380299136 -->
<g id="edge11" class="edge"><title>1368380259968&#45;&gt;1368380299136</title>
<path fill="none" stroke="black" d="M187,-830.366C187,-822.152 187,-812.658 187,-803.725"/>
<polygon fill="black" stroke="black" points="190.5,-803.607 187,-793.607 183.5,-803.607 190.5,-803.607"/>
</g>
<!-- 1368380341328 -->
<g id="node13" class="node"><title>1368380341328</title>
<polygon fill="none" stroke="black" points="21,-664.5 21,-710.5 353,-710.5 353,-664.5 21,-664.5"/>
<text text-anchor="middle" x="96.5" y="-683.8" font-family="Times New Roman,serif" font-size="14.00">block4_conv2: Conv2D</text>
<polyline fill="none" stroke="black" points="172,-664.5 172,-710.5 "/>
<text text-anchor="middle" x="200" y="-695.3" font-family="Times New Roman,serif" font-size="14.00">input:</text>
<polyline fill="none" stroke="black" points="172,-687.5 228,-687.5 "/>
<text text-anchor="middle" x="200" y="-672.3" font-family="Times New Roman,serif" font-size="14.00">output:</text>
<polyline fill="none" stroke="black" points="228,-664.5 228,-710.5 "/>
<text text-anchor="middle" x="290.5" y="-695.3" font-family="Times New Roman,serif" font-size="14.00">(None, 56, 56, 512)</text>
<polyline fill="none" stroke="black" points="228,-687.5 353,-687.5 "/>
<text text-anchor="middle" x="290.5" y="-672.3" font-family="Times New Roman,serif" font-size="14.00">(None, 56, 56, 512)</text>
</g>
<!-- 1368380299136&#45;&gt;1368380341328 -->
<g id="edge12" class="edge"><title>1368380299136&#45;&gt;1368380341328</title>
<path fill="none" stroke="black" d="M187,-747.366C187,-739.152 187,-729.658 187,-720.725"/>
<polygon fill="black" stroke="black" points="190.5,-720.607 187,-710.607 183.5,-720.607 190.5,-720.607"/>
</g>
<!-- 1368380435536 -->
<g id="node14" class="node"><title>1368380435536</title>
<polygon fill="none" stroke="black" points="21,-581.5 21,-627.5 353,-627.5 353,-581.5 21,-581.5"/>
<text text-anchor="middle" x="96.5" y="-600.8" font-family="Times New Roman,serif" font-size="14.00">block4_conv3: Conv2D</text>
<polyline fill="none" stroke="black" points="172,-581.5 172,-627.5 "/>
<text text-anchor="middle" x="200" y="-612.3" font-family="Times New Roman,serif" font-size="14.00">input:</text>
<polyline fill="none" stroke="black" points="172,-604.5 228,-604.5 "/>
<text text-anchor="middle" x="200" y="-589.3" font-family="Times New Roman,serif" font-size="14.00">output:</text>
<polyline fill="none" stroke="black" points="228,-581.5 228,-627.5 "/>
<text text-anchor="middle" x="290.5" y="-612.3" font-family="Times New Roman,serif" font-size="14.00">(None, 56, 56, 512)</text>
<polyline fill="none" stroke="black" points="228,-604.5 353,-604.5 "/>
<text text-anchor="middle" x="290.5" y="-589.3" font-family="Times New Roman,serif" font-size="14.00">(None, 56, 56, 512)</text>
</g>
<!-- 1368380341328&#45;&gt;1368380435536 -->
<g id="edge13" class="edge"><title>1368380341328&#45;&gt;1368380435536</title>
<path fill="none" stroke="black" d="M187,-664.366C187,-656.152 187,-646.658 187,-637.725"/>
<polygon fill="black" stroke="black" points="190.5,-637.607 187,-627.607 183.5,-637.607 190.5,-637.607"/>
</g>
<!-- 1368380481776 -->
<g id="node15" class="node"><title>1368380481776</title>
<polygon fill="none" stroke="black" points="7,-498.5 7,-544.5 367,-544.5 367,-498.5 7,-498.5"/>
<text text-anchor="middle" x="96.5" y="-517.8" font-family="Times New Roman,serif" font-size="14.00">block4_pool: MaxPooling2D</text>
<polyline fill="none" stroke="black" points="186,-498.5 186,-544.5 "/>
<text text-anchor="middle" x="214" y="-529.3" font-family="Times New Roman,serif" font-size="14.00">input:</text>
<polyline fill="none" stroke="black" points="186,-521.5 242,-521.5 "/>
<text text-anchor="middle" x="214" y="-506.3" font-family="Times New Roman,serif" font-size="14.00">output:</text>
<polyline fill="none" stroke="black" points="242,-498.5 242,-544.5 "/>
<text text-anchor="middle" x="304.5" y="-529.3" font-family="Times New Roman,serif" font-size="14.00">(None, 56, 56, 512)</text>
<polyline fill="none" stroke="black" points="242,-521.5 367,-521.5 "/>
<text text-anchor="middle" x="304.5" y="-506.3" font-family="Times New Roman,serif" font-size="14.00">(None, 28, 28, 512)</text>
</g>
<!-- 1368380435536&#45;&gt;1368380481776 -->
<g id="edge14" class="edge"><title>1368380435536&#45;&gt;1368380481776</title>
<path fill="none" stroke="black" d="M187,-581.366C187,-573.152 187,-563.658 187,-554.725"/>
<polygon fill="black" stroke="black" points="190.5,-554.607 187,-544.607 183.5,-554.607 190.5,-554.607"/>
</g>
<!-- 1368380519368 -->
<g id="node16" class="node"><title>1368380519368</title>
<polygon fill="none" stroke="black" points="21,-415.5 21,-461.5 353,-461.5 353,-415.5 21,-415.5"/>
<text text-anchor="middle" x="96.5" y="-434.8" font-family="Times New Roman,serif" font-size="14.00">block5_conv1: Conv2D</text>
<polyline fill="none" stroke="black" points="172,-415.5 172,-461.5 "/>
<text text-anchor="middle" x="200" y="-446.3" font-family="Times New Roman,serif" font-size="14.00">input:</text>
<polyline fill="none" stroke="black" points="172,-438.5 228,-438.5 "/>
<text text-anchor="middle" x="200" y="-423.3" font-family="Times New Roman,serif" font-size="14.00">output:</text>
<polyline fill="none" stroke="black" points="228,-415.5 228,-461.5 "/>
<text text-anchor="middle" x="290.5" y="-446.3" font-family="Times New Roman,serif" font-size="14.00">(None, 28, 28, 512)</text>
<polyline fill="none" stroke="black" points="228,-438.5 353,-438.5 "/>
<text text-anchor="middle" x="290.5" y="-423.3" font-family="Times New Roman,serif" font-size="14.00">(None, 28, 28, 512)</text>
</g>
<!-- 1368380481776&#45;&gt;1368380519368 -->
<g id="edge15" class="edge"><title>1368380481776&#45;&gt;1368380519368</title>
<path fill="none" stroke="black" d="M187,-498.366C187,-490.152 187,-480.658 187,-471.725"/>
<polygon fill="black" stroke="black" points="190.5,-471.607 187,-461.607 183.5,-471.607 190.5,-471.607"/>
</g>
<!-- 1368380603584 -->
<g id="node17" class="node"><title>1368380603584</title>
<polygon fill="none" stroke="black" points="21,-332.5 21,-378.5 353,-378.5 353,-332.5 21,-332.5"/>
<text text-anchor="middle" x="96.5" y="-351.8" font-family="Times New Roman,serif" font-size="14.00">block5_conv2: Conv2D</text>
<polyline fill="none" stroke="black" points="172,-332.5 172,-378.5 "/>
<text text-anchor="middle" x="200" y="-363.3" font-family="Times New Roman,serif" font-size="14.00">input:</text>
<polyline fill="none" stroke="black" points="172,-355.5 228,-355.5 "/>
<text text-anchor="middle" x="200" y="-340.3" font-family="Times New Roman,serif" font-size="14.00">output:</text>
<polyline fill="none" stroke="black" points="228,-332.5 228,-378.5 "/>
<text text-anchor="middle" x="290.5" y="-363.3" font-family="Times New Roman,serif" font-size="14.00">(None, 28, 28, 512)</text>
<polyline fill="none" stroke="black" points="228,-355.5 353,-355.5 "/>
<text text-anchor="middle" x="290.5" y="-340.3" font-family="Times New Roman,serif" font-size="14.00">(None, 28, 28, 512)</text>
</g>
<!-- 1368380519368&#45;&gt;1368380603584 -->
<g id="edge16" class="edge"><title>1368380519368&#45;&gt;1368380603584</title>
<path fill="none" stroke="black" d="M187,-415.366C187,-407.152 187,-397.658 187,-388.725"/>
<polygon fill="black" stroke="black" points="190.5,-388.607 187,-378.607 183.5,-388.607 190.5,-388.607"/>
</g>
<!-- 1368380642416 -->
<g id="node18" class="node"><title>1368380642416</title>
<polygon fill="none" stroke="black" points="21,-249.5 21,-295.5 353,-295.5 353,-249.5 21,-249.5"/>
<text text-anchor="middle" x="96.5" y="-268.8" font-family="Times New Roman,serif" font-size="14.00">block5_conv3: Conv2D</text>
<polyline fill="none" stroke="black" points="172,-249.5 172,-295.5 "/>
<text text-anchor="middle" x="200" y="-280.3" font-family="Times New Roman,serif" font-size="14.00">input:</text>
<polyline fill="none" stroke="black" points="172,-272.5 228,-272.5 "/>
<text text-anchor="middle" x="200" y="-257.3" font-family="Times New Roman,serif" font-size="14.00">output:</text>
<polyline fill="none" stroke="black" points="228,-249.5 228,-295.5 "/>
<text text-anchor="middle" x="290.5" y="-280.3" font-family="Times New Roman,serif" font-size="14.00">(None, 28, 28, 512)</text>
<polyline fill="none" stroke="black" points="228,-272.5 353,-272.5 "/>
<text text-anchor="middle" x="290.5" y="-257.3" font-family="Times New Roman,serif" font-size="14.00">(None, 28, 28, 512)</text>
</g>
<!-- 1368380603584&#45;&gt;1368380642416 -->
<g id="edge17" class="edge"><title>1368380603584&#45;&gt;1368380642416</title>
<path fill="none" stroke="black" d="M187,-332.366C187,-324.152 187,-314.658 187,-305.725"/>
<polygon fill="black" stroke="black" points="190.5,-305.607 187,-295.607 183.5,-305.607 190.5,-305.607"/>
</g>
<!-- 1368380687248 -->
<g id="node19" class="node"><title>1368380687248</title>
<polygon fill="none" stroke="black" points="7,-166.5 7,-212.5 367,-212.5 367,-166.5 7,-166.5"/>
<text text-anchor="middle" x="96.5" y="-185.8" font-family="Times New Roman,serif" font-size="14.00">block5_pool: MaxPooling2D</text>
<polyline fill="none" stroke="black" points="186,-166.5 186,-212.5 "/>
<text text-anchor="middle" x="214" y="-197.3" font-family="Times New Roman,serif" font-size="14.00">input:</text>
<polyline fill="none" stroke="black" points="186,-189.5 242,-189.5 "/>
<text text-anchor="middle" x="214" y="-174.3" font-family="Times New Roman,serif" font-size="14.00">output:</text>
<polyline fill="none" stroke="black" points="242,-166.5 242,-212.5 "/>
<text text-anchor="middle" x="304.5" y="-197.3" font-family="Times New Roman,serif" font-size="14.00">(None, 28, 28, 512)</text>
<polyline fill="none" stroke="black" points="242,-189.5 367,-189.5 "/>
<text text-anchor="middle" x="304.5" y="-174.3" font-family="Times New Roman,serif" font-size="14.00">(None, 14, 14, 512)</text>
</g>
<!-- 1368380642416&#45;&gt;1368380687248 -->
<g id="edge18" class="edge"><title>1368380642416&#45;&gt;1368380687248</title>
<path fill="none" stroke="black" d="M187,-249.366C187,-241.152 187,-231.658 187,-222.725"/>
<polygon fill="black" stroke="black" points="190.5,-222.607 187,-212.607 183.5,-222.607 190.5,-222.607"/>
</g>
<!-- 1368380808328 -->
<g id="node20" class="node"><title>1368380808328</title>
<polygon fill="none" stroke="black" points="33,-83.5 33,-129.5 341,-129.5 341,-83.5 33,-83.5"/>
<text text-anchor="middle" x="96.5" y="-102.8" font-family="Times New Roman,serif" font-size="14.00">conv2d_1: Conv2D</text>
<polyline fill="none" stroke="black" points="160,-83.5 160,-129.5 "/>
<text text-anchor="middle" x="188" y="-114.3" font-family="Times New Roman,serif" font-size="14.00">input:</text>
<polyline fill="none" stroke="black" points="160,-106.5 216,-106.5 "/>
<text text-anchor="middle" x="188" y="-91.3" font-family="Times New Roman,serif" font-size="14.00">output:</text>
<polyline fill="none" stroke="black" points="216,-83.5 216,-129.5 "/>
<text text-anchor="middle" x="278.5" y="-114.3" font-family="Times New Roman,serif" font-size="14.00">(None, 14, 14, 512)</text>
<polyline fill="none" stroke="black" points="216,-106.5 341,-106.5 "/>
<text text-anchor="middle" x="278.5" y="-91.3" font-family="Times New Roman,serif" font-size="14.00">(None, 14, 14, 85)</text>
</g>
<!-- 1368380687248&#45;&gt;1368380808328 -->
<g id="edge19" class="edge"><title>1368380687248&#45;&gt;1368380808328</title>
<path fill="none" stroke="black" d="M187,-166.366C187,-158.152 187,-148.658 187,-139.725"/>
<polygon fill="black" stroke="black" points="190.5,-139.607 187,-129.607 183.5,-139.607 190.5,-139.607"/>
</g>
<!-- 1368380859784 -->
<g id="node21" class="node"><title>1368380859784</title>
<polygon fill="none" stroke="black" points="35.5,-0.5 35.5,-46.5 338.5,-46.5 338.5,-0.5 35.5,-0.5"/>
<text text-anchor="middle" x="99.5" y="-19.8" font-family="Times New Roman,serif" font-size="14.00">reshape_1: Reshape</text>
<polyline fill="none" stroke="black" points="163.5,-0.5 163.5,-46.5 "/>
<text text-anchor="middle" x="191.5" y="-31.3" font-family="Times New Roman,serif" font-size="14.00">input:</text>
<polyline fill="none" stroke="black" points="163.5,-23.5 219.5,-23.5 "/>
<text text-anchor="middle" x="191.5" y="-8.3" font-family="Times New Roman,serif" font-size="14.00">output:</text>
<polyline fill="none" stroke="black" points="219.5,-0.5 219.5,-46.5 "/>
<text text-anchor="middle" x="279" y="-31.3" font-family="Times New Roman,serif" font-size="14.00">(None, 14, 14, 85)</text>
<polyline fill="none" stroke="black" points="219.5,-23.5 338.5,-23.5 "/>
<text text-anchor="middle" x="279" y="-8.3" font-family="Times New Roman,serif" font-size="14.00">(None, 14, 14, 85)</text>
</g>
<!-- 1368380808328&#45;&gt;1368380859784 -->
<g id="edge20" class="edge"><title>1368380808328&#45;&gt;1368380859784</title>
<path fill="none" stroke="black" d="M187,-83.3664C187,-75.1516 187,-65.6579 187,-56.7252"/>
<polygon fill="black" stroke="black" points="190.5,-56.6068 187,-46.6068 183.5,-56.6069 190.5,-56.6068"/>
</g>
</g>
</svg>
